# xmcd
#
# Track frame offsets: 
#        199
#        13943
#        27478
#        41790
#        59851
#        75827
#        89065
#        104765
#        119363
#        133312
#
# Disc length: 1973 seconds
#
# Revision: 3
# Processed by: cddbd v1.4PL0 Copyright (c) Steve Scherf et al.
# Submitted via: ExactAudioCopy v0.90b3
#
DISCID=9507b30a
DTITLE=T. Graham Brown - Don't Go To Strangers
DYEAR=1900
DGENRE=Country
TTITLE0=I Tell It Like It Used To Be
TTITLE1=I Wish That I Could Hurt That Way Again
TTITLE2=Hell And High Water
TTITLE3=Don't Go To Strangers
TTITLE4=The Power Of Love
TTITLE5=Brilliant Conversationlist
TTITLE6=The Last Resort
TTITLE7=She Couldn't Love Me Anymore
TTITLE8=Come As You Were
TTITLE9=Darlene
EXTD=
EXTT0=
EXTT1=
EXTT2=
EXTT3=
EXTT4=
EXTT5=
EXTT6=
EXTT7=
EXTT8=
EXTT9=
PLAYORDER=
